<svg width="15" height="15" viewBox="0 0 15 15" fill="none" xmlns="http://www.w3.org/2000/svg">
<path d="M6.9375 12.5042C7.1625 12.4042 7.25 12.2583 7.29583 11.9208C7.40417 11.1333 7.625 10.5917 8.0625 10.0625C8.2125 9.87917 8.57083 9.37917 8.8625 8.95L9.3875 8.16667L9.525 8.29167C9.74583 8.48334 9.9 8.50834 10.7167 8.49167L11.45 8.47917L11.6125 8.35C11.95 8.075 11.9292 8.23334 11.95 5.60417C11.9708 3.14584 11.9583 2.94167 11.7875 2.70417C11.6125 2.45417 11.4583 2.41667 10.6333 2.41667C9.80417 2.41667 9.67083 2.44584 9.4875 2.66251C9.42917 2.73334 9.375 2.81251 9.36667 2.84167C9.35 2.88334 9.24167 2.86667 8.89167 2.77084L8.4375 2.64584L6.4875 2.63334C4.32083 2.62084 4.225 2.62917 3.93333 2.88334C3.7125 3.07917 3.6125 3.30834 3.6125 3.6125C3.6125 3.83334 3.60417 3.87501 3.53333 3.9C3.38333 3.94584 3.15417 4.18334 3.05833 4.39584C2.93333 4.65417 2.92917 4.95417 3.04167 5.20417L3.125 5.38334L2.95833 5.57084C2.77083 5.78334 2.70833 5.9625 2.70833 6.275C2.70833 6.52917 2.76667 6.725 2.9 6.9L2.99583 7.03334L2.9125 7.1375C2.775 7.32084 2.70833 7.52917 2.70833 7.8C2.70833 8.10834 2.8 8.32917 3.00833 8.54584C3.30417 8.84584 3.34167 8.85 4.6875 8.875L5.89583 8.89584L5.88333 9.04167C5.86667 9.20417 5.83333 9.28334 5.60833 9.64584C5.36667 10.0375 5.3125 10.2708 5.3125 10.8958C5.3125 11.3958 5.325 11.4583 5.43333 11.7292C5.6125 12.1625 5.75417 12.35 6.00833 12.475C6.27917 12.6083 6.67917 12.6208 6.9375 12.5042ZM6.13333 12.0958C5.84583 11.8833 5.6875 11.4542 5.69167 10.875C5.69167 10.3917 5.76667 10.1125 6.00417 9.75C6.1 9.6 6.20417 9.39584 6.2375 9.29584C6.30417 9.06667 6.30833 8.61667 6.24167 8.55C6.20417 8.5125 5.8625 8.5 4.96667 8.5C4.15 8.5 3.68333 8.48334 3.575 8.45C3.35833 8.3875 3.14167 8.14167 3.10417 7.92084C3.0625 7.65834 3.1125 7.5125 3.33333 7.29167C3.5625 7.0625 3.57083 6.97084 3.36667 6.82501C3.22083 6.725 3.08333 6.45417 3.08333 6.27084C3.08333 6.05417 3.225 5.8125 3.43333 5.67084C3.65417 5.51667 3.675 5.425 3.52083 5.24584C3.20417 4.86667 3.375 4.325 3.85 4.20417C4.09167 4.14584 4.14583 4.05834 4.0625 3.85834C3.94167 3.57084 4.025 3.27501 4.27083 3.12501C4.4 3.04584 4.475 3.04167 6.37917 3.04167L8.35417 3.04167L8.75 3.15001C8.96667 3.20834 9.17917 3.26667 9.21667 3.27917C9.2875 3.30001 9.29167 3.44167 9.29167 5.45417V7.60834L8.675 8.525C8.3375 9.025 7.93333 9.5875 7.77917 9.77084C7.30417 10.3333 7.02917 10.9708 6.92083 11.7583C6.9 11.9125 6.87083 12.0583 6.85417 12.0833C6.76667 12.2292 6.32083 12.2333 6.13333 12.0958ZM9.9 8.06667C9.82083 8.03334 9.74583 7.96667 9.72917 7.92084C9.69167 7.79584 9.67917 3.26251 9.71667 3.08334C9.77083 2.81251 9.84167 2.79167 10.6125 2.79167H11.3L11.4208 2.91251L11.5417 3.03334V5.45C11.5417 8.30417 11.5833 8.07084 11.05 8.09584C10.2583 8.12917 10.0375 8.125 9.9 8.06667Z" fill="black"/>
</svg>
