<svg width="38" height="34" viewBox="0 0 38 34" fill="none" xmlns="http://www.w3.org/2000/svg">
<g clip-path="url(#clip0_7_15)">
<path d="M17.1422 0.151089C12.9707 0.438198 9.15377 1.99464 5.928 4.75998C3.09066 7.16264 1.23288 10.1698 0.422218 13.6151C0.0844398 15.0355 0.0844398 18.9644 0.422218 20.3849C1.99288 27.0942 7.63377 32.1262 15.2507 33.6373C16.0613 33.8035 17.2942 33.8791 19 33.8791C23.3573 33.8791 26.9378 32.8666 30.2142 30.6755C34.0311 28.1369 36.5476 24.616 37.5947 20.3546C37.9662 18.8738 37.9662 15.1262 37.5947 13.6453C36.3111 8.41687 32.5956 4.09509 27.512 1.84353C24.2355 0.407978 21.0267 -0.120914 17.1422 0.151089ZM12.7004 4.26131C11.5351 5.54575 10.8427 6.46753 10.3191 7.3742L9.94755 8.02398L8.10666 7.99376C7.07644 7.97864 6.24888 7.93331 6.24888 7.87287C6.24888 7.67642 9.00177 5.36442 9.82933 4.86576C10.6231 4.3822 13.2747 3.17331 13.5618 3.17331C13.6293 3.17331 13.2578 3.67198 12.7004 4.26131ZM25.9244 3.76264C26.7013 4.07998 27.6978 4.57864 28.1538 4.85064C29.032 5.37953 31.7511 7.67642 31.7511 7.88798C31.7511 7.94842 30.9235 8.00887 29.8933 8.00887H28.0356L27.6809 7.35909C27.1573 6.46753 26.448 5.54575 25.2996 4.26131C24.7422 3.67198 24.3538 3.17331 24.4044 3.17331C24.472 3.17331 25.1476 3.44531 25.9244 3.76264ZM17.6658 7.81242C17.5982 7.96353 17.0071 8.00887 15.2844 8.00887C14.0347 8.00887 13.0044 7.96353 13.0044 7.9182C13.0044 7.76709 14.0516 6.43731 14.8284 5.62131C15.2507 5.16798 16.0613 4.45775 16.6187 4.03464L17.6489 3.27909L17.6996 5.43998C17.7164 6.63375 17.6996 7.70664 17.6658 7.81242ZM22.2933 4.82042C23.3742 5.77242 24.9956 7.63109 24.9956 7.9182C24.9956 7.96353 23.9484 7.97864 22.6818 7.96353L20.3511 7.93331L20.3004 5.62131L20.2498 3.30931L20.6213 3.49064C20.824 3.58131 21.584 4.18575 22.2933 4.82042ZM8.512 11.5902C8.30933 12.3306 8.056 13.5849 7.93777 14.3858L7.73511 15.8666H5.18488H2.65155L2.76977 15.0658C2.93866 13.9022 3.344 12.6026 3.91822 11.3635L4.42488 10.2755H6.65422H8.88355L8.512 11.5902ZM17.7333 13.0711V15.8666H14.1022H10.4711V15.2018C10.4711 14.3253 10.8764 12.4213 11.3324 11.2275L11.6871 10.2755H14.7102H17.7333V13.0711ZM26.6676 11.2275C27.1236 12.4213 27.5289 14.3253 27.5289 15.2018V15.8666H23.8978H20.2667V13.0711V10.2755H23.2898H26.3129L26.6676 11.2275ZM34.0818 11.3635C34.656 12.6026 35.0613 13.9022 35.2302 15.0658L35.3484 15.8666H32.7982H30.248L30.1467 14.9902C29.9947 13.7209 29.5893 11.7866 29.3191 10.9706L29.0827 10.2755H31.3289H33.5751L34.0818 11.3635ZM7.93777 19.5991C8.056 20.4151 8.30933 21.6693 8.512 22.3946L8.88355 23.7244H6.65422H4.42488L3.91822 22.6213C3.344 21.3973 2.93866 20.0978 2.76977 18.9191L2.65155 18.1333H5.18488H7.73511L7.93777 19.5991ZM17.7333 20.9289V23.7244H14.7102H11.6871L11.3156 22.7422C10.8933 21.5938 10.488 19.6898 10.4711 18.768V18.1333H14.1022H17.7333V20.9289ZM27.5289 18.768C27.512 19.6898 27.1067 21.5938 26.6844 22.7422L26.3129 23.7244H23.2898H20.2667V20.9289V18.1333H23.8978H27.5289V18.768ZM35.2302 18.9191C35.0613 20.0978 34.656 21.3973 34.0818 22.6213L33.5751 23.7244H31.3289H29.0827L29.3191 23.0293C29.5893 22.2133 29.9947 20.2791 30.1467 18.9946L30.248 18.1333H32.7982H35.3484L35.2302 18.9191ZM10.3191 26.6258C10.8427 27.5475 11.552 28.4542 12.7173 29.7538C13.5618 30.6604 13.6631 30.8418 13.3253 30.7511C12.6836 30.5698 10.6231 29.6178 9.79555 29.1191C8.968 28.6204 6.24888 26.3084 6.24888 26.112C6.24888 26.0515 7.07644 25.9911 8.10666 25.9911H9.96444L10.3191 26.6258ZM17.6996 28.3786L17.7502 30.6906L17.3787 30.5093C16.416 30.056 13.0044 26.5804 13.0044 26.0666C13.0044 26.0213 14.0516 26.0062 15.3351 26.0213L17.6489 26.0666L17.6996 28.3786ZM24.9956 26.0969C24.9956 26.5955 21.5671 30.056 20.6382 30.5093L20.2667 30.6906V28.4391C20.2667 27.2 20.3173 26.1422 20.3849 26.0818C20.52 25.976 24.9956 25.976 24.9956 26.0969ZM31.7511 26.1271C31.7511 26.3235 28.9813 28.6355 28.1538 29.1493C27.4107 29.6026 24.6747 30.8266 24.4044 30.8266C24.3538 30.8266 24.7422 30.328 25.2996 29.7235C26.4649 28.4542 27.1573 27.5324 27.6809 26.6258L28.0524 25.976L29.8933 26.0062C30.9235 26.0062 31.7511 26.0666 31.7511 26.1271Z" fill="#374159"/>
</g>
<defs>
<clipPath id="clip0_7_15">
<rect width="38" height="34" fill="white"/>
</clipPath>
</defs>
</svg>
