<svg width="15" height="15" viewBox="0 0 15 15" fill="none" xmlns="http://www.w3.org/2000/svg">
<path d="M8.0625 2.49583C7.8375 2.59583 7.75 2.74166 7.70417 3.07916C7.59583 3.86666 7.375 4.40833 6.9375 4.9375C6.7875 5.12083 6.42917 5.62083 6.1375 6.05L5.6125 6.83333L5.475 6.70833C5.25417 6.51666 5.1 6.49166 4.28333 6.50833L3.55 6.52083L3.3875 6.65C3.05 6.925 3.07083 6.76666 3.05 9.39583C3.02917 11.8542 3.04167 12.0583 3.2125 12.2958C3.3875 12.5458 3.54167 12.5833 4.36667 12.5833C5.19583 12.5833 5.32917 12.5542 5.5125 12.3375C5.57083 12.2667 5.625 12.1875 5.63333 12.1583C5.65 12.1167 5.75833 12.1333 6.10833 12.2292L6.5625 12.3542L8.5125 12.3667C10.6792 12.3792 10.775 12.3708 11.0667 12.1167C11.2875 11.9208 11.3875 11.6917 11.3875 11.3875C11.3875 11.1667 11.3958 11.125 11.4667 11.1C11.6167 11.0542 11.8458 10.8167 11.9417 10.6042C12.0667 10.3458 12.0708 10.0458 11.9583 9.79583L11.875 9.61666L12.0417 9.42916C12.2292 9.21666 12.2917 9.0375 12.2917 8.725C12.2917 8.47083 12.2333 8.275 12.1 8.1L12.0042 7.96666L12.0875 7.8625C12.225 7.67916 12.2917 7.47083 12.2917 7.2C12.2917 6.89166 12.2 6.67083 11.9917 6.45416C11.6958 6.15416 11.6583 6.15 10.3125 6.125L9.10417 6.10416L9.11667 5.95833C9.13333 5.79583 9.16667 5.71666 9.39167 5.35416C9.63333 4.9625 9.6875 4.72916 9.6875 4.10416C9.6875 3.60416 9.675 3.54166 9.56667 3.27083C9.3875 2.8375 9.24583 2.65 8.99167 2.525C8.72083 2.39166 8.32083 2.37916 8.0625 2.49583ZM8.86667 2.90416C9.15417 3.11666 9.3125 3.54583 9.30833 4.125C9.30833 4.60833 9.23333 4.8875 8.99583 5.25C8.9 5.4 8.79583 5.60416 8.7625 5.70416C8.69583 5.93333 8.69167 6.38333 8.75833 6.45C8.79583 6.4875 9.1375 6.5 10.0333 6.5C10.85 6.5 11.3167 6.51666 11.425 6.55C11.6417 6.6125 11.8583 6.85833 11.8958 7.07916C11.9375 7.34166 11.8875 7.4875 11.6667 7.70833C11.4375 7.9375 11.4292 8.02916 11.6333 8.17499C11.7792 8.275 11.9167 8.54583 11.9167 8.72916C11.9167 8.94583 11.775 9.1875 11.5667 9.32916C11.3458 9.48333 11.325 9.575 11.4792 9.75416C11.7958 10.1333 11.625 10.675 11.15 10.7958C10.9083 10.8542 10.8542 10.9417 10.9375 11.1417C11.0583 11.4292 10.975 11.725 10.7292 11.875C10.6 11.9542 10.525 11.9583 8.62083 11.9583H6.64583L6.25 11.85C6.03333 11.7917 5.82083 11.7333 5.78333 11.7208C5.7125 11.7 5.70833 11.5583 5.70833 9.54583V7.39166L6.325 6.475C6.6625 5.975 7.06667 5.4125 7.22083 5.22916C7.69583 4.66666 7.97083 4.02916 8.07917 3.24166C8.1 3.0875 8.12917 2.94166 8.14583 2.91666C8.23333 2.77083 8.67917 2.76666 8.86667 2.90416ZM5.1 6.93333C5.17917 6.96666 5.25417 7.03333 5.27083 7.07916C5.30833 7.20416 5.32083 11.7375 5.28333 11.9167C5.22917 12.1875 5.15833 12.2083 4.3875 12.2083H3.7L3.57917 12.0875L3.45833 11.9667V9.55C3.45833 6.69583 3.41667 6.92916 3.95 6.90416C4.74167 6.87083 4.9625 6.875 5.1 6.93333Z" fill="black"/>
</svg>
