<svg width="25" height="25" viewBox="0 0 25 25" fill="none" xmlns="http://www.w3.org/2000/svg">
<path d="M11.225 0.050005C7.68502 0.350006 4.60502 2.80501 3.55002 6.17501C3.29502 6.98501 3.19002 7.64501 3.16502 8.62501C3.13502 9.62001 3.20502 10.265 3.43002 11.14C4.14502 13.945 6.37502 16.32 9.15002 17.245C11.03 17.87 13.19 17.835 15.045 17.15L15.45 17.005L15.52 17.115C15.555 17.175 15.9 17.765 16.28 18.425C16.66 19.085 17.41 20.39 17.95 21.325C18.49 22.26 19.165 23.43 19.45 23.925C19.735 24.42 19.995 24.855 20.03 24.895C20.085 24.955 20.23 24.885 20.97 24.455C21.455 24.17 21.85 23.93 21.85 23.915C21.85 23.88 21.485 23.23 20.81 22.075C20.52 21.58 19.91 20.52 19.45 19.725C18.99 18.925 18.32 17.765 17.96 17.14C17.595 16.52 17.3 15.985 17.3 15.96C17.3 15.935 17.385 15.85 17.49 15.77C18.08 15.33 18.99 14.315 19.445 13.595C19.75 13.11 20.22 12.095 20.39 11.55C20.7 10.58 20.775 10.04 20.775 8.85001C20.77 7.70501 20.725 7.34001 20.47 6.43501C20.22 5.57501 19.68 4.43001 19.21 3.77501C18.345 2.57501 17.185 1.585 15.875 0.950006C14.82 0.435005 13.785 0.145006 12.67 0.050005C12.015 -0.00499535 11.885 -0.00499535 11.225 0.050005ZM13.15 2.23001C14.04 2.39001 15 2.78001 15.775 3.29501C16.245 3.60501 17.225 4.58501 17.55 5.07001C18.08 5.86501 18.48 6.88501 18.63 7.84001C18.73 8.48001 18.705 9.61501 18.58 10.2C18.165 12.105 17.12 13.595 15.465 14.62C14.39 15.29 13.28 15.6 11.975 15.6C10.13 15.6 8.51502 14.925 7.20002 13.605C5.55002 11.945 4.87502 9.65501 5.38002 7.40001C5.69502 5.99001 6.55502 4.57501 7.61502 3.70501C9.21502 2.40001 11.175 1.88 13.15 2.23001Z" fill="#374159"/>
</svg>
