<svg width="35" height="34" viewBox="0 0 35 34" fill="none" xmlns="http://www.w3.org/2000/svg">
<g clip-path="url(#clip0_10_53)">
<path d="M16.8788 0.0664253C16.2727 0.159393 15.8182 0.325409 15.3258 0.617596C14.8409 0.903145 14.197 1.54728 14.0227 1.91252C13.9394 2.09181 13.8409 2.14494 13.303 2.29767C8.18183 3.78517 4.60607 7.65666 4.02274 12.3649C3.96971 12.75 3.93941 14.7289 3.93941 17.2988V21.5821L2.10607 23.9926C1.0985 25.3141 0.227285 26.5028 0.18183 26.6289C-0.136352 27.3992 0.287891 28.3422 1.11365 28.7008L1.47728 28.8535L6.1288 28.8867L10.7727 28.9199L10.947 29.5242C11.5076 31.4567 13.1667 33.0238 15.3485 33.6613C19.053 34.7504 23.0985 32.8246 24.053 29.5242L24.2273 28.9199L28.8712 28.8867L33.5227 28.8535L33.8864 28.7008C34.7121 28.3422 35.1364 27.3992 34.8182 26.6289C34.7727 26.5028 33.9015 25.3141 32.894 23.9926L31.0606 21.5821V17.3188C31.0606 13.9852 31.0379 12.8629 30.947 12.2188C30.3258 7.57033 26.7197 3.73869 21.5833 2.26447C21.1364 2.1383 21.0758 2.09846 20.9318 1.83283C20.5606 1.16213 19.5076 0.398457 18.6591 0.179314C18.144 0.0465012 17.3333 -0.00662231 16.8788 0.0664253ZM19 5.21291C20.4243 5.41877 21.9924 5.98322 23.144 6.70705C24.3106 7.44416 25.553 8.7258 26.197 9.86135C26.4697 10.3461 26.8409 11.2824 27.0152 11.9531C27.1364 12.3981 27.1515 13.0223 27.1894 17.4981C27.2273 21.2301 27.2576 22.5914 27.3258 22.7242C27.3788 22.8238 27.8636 23.4879 28.4091 24.2051L29.394 25.5H17.5H5.60607L6.59092 24.2051C7.13638 23.4879 7.62122 22.8238 7.67425 22.7242C7.74244 22.5914 7.77274 21.2301 7.81062 17.4981C7.85607 11.9531 7.84092 12.1723 8.3485 10.8574C8.96971 9.25705 10.1818 7.80275 11.75 6.77346C12.8788 6.03635 14.5227 5.42541 15.9394 5.21955C16.7727 5.09338 18.144 5.09338 19 5.21291ZM20.2273 28.9332C20.2273 28.9664 20.1288 29.1391 20.0076 29.3184C19.7121 29.7633 19.2576 30.1153 18.644 30.3676C18.2046 30.5469 18.0606 30.5735 17.5 30.5735C16.9394 30.5735 16.7955 30.5469 16.3561 30.3676C15.7424 30.1153 15.2879 29.7633 14.9924 29.3184C14.8712 29.1391 14.7727 28.9664 14.7727 28.9332C14.7727 28.9067 16 28.8867 17.5 28.8867C19 28.8867 20.2273 28.9067 20.2273 28.9332Z" fill="#374159"/>
</g>
<defs>
<clipPath id="clip0_10_53">
<rect width="35" height="34" fill="white"/>
</clipPath>
</defs>
</svg>
