<svg width="42" height="34" viewBox="0 0 42 34" fill="none" xmlns="http://www.w3.org/2000/svg">
<path d="M19.719 0.0811539C16.536 0.295036 13.3763 1.3497 10.8222 3.06076C9.69649 3.81304 9.33161 4.10805 8.34566 5.04471C6.5756 6.73365 5.38004 8.43734 4.44843 10.5835C2.68614 14.6473 2.68614 19.3749 4.44843 23.4165C4.80554 24.2352 5.3024 25.1866 5.6207 25.666C5.72163 25.8061 5.89242 26.0716 6.01664 26.256C6.8085 27.4508 8.73383 29.479 9.81294 30.246C11.4976 31.4408 12.6155 32.0677 14.2458 32.7094C16.5982 33.6386 19.6725 34.118 22.1102 33.9337C25.5882 33.6681 28.5616 32.6872 31.1778 30.9393C32.2958 30.187 32.6684 29.892 33.6621 28.9553C36.3172 26.4256 38.0251 23.2911 38.6307 19.8395C39.1741 16.6681 38.7782 13.3493 37.5128 10.5024C36.5268 8.29721 35.4244 6.73365 33.6543 5.04471C32.6684 4.10805 32.3035 3.81304 31.1778 3.06076C27.9094 0.877686 23.8104 -0.19173 19.719 0.0811539ZM23.5619 1.57833C28.3209 2.39699 32.125 4.73495 34.7102 8.43734C36.0222 10.3107 36.7519 12.0881 37.2721 14.6399C37.4196 15.3553 37.4196 18.6521 37.2721 19.3601C36.6122 22.5757 35.4632 24.9284 33.5146 27.082C33.1264 27.5172 32.9945 27.5614 32.9945 27.259C32.9945 27.1705 32.8702 26.6764 32.7227 26.1601C31.8843 23.2469 29.8736 20.7467 27.1486 19.2347C26.5664 18.9176 24.9516 18.2169 24.7885 18.2169C24.5945 18.2169 24.6954 18.0989 25.1534 17.7818C26.7527 16.6755 27.8085 15.0603 28.1501 13.187C28.6081 10.7015 27.2884 7.87682 24.9982 6.46076C22.9331 5.17747 20.3013 4.96358 18.1275 5.88549C15.8917 6.8369 14.3856 8.62909 13.8965 10.9154C13.7102 11.7783 13.7024 12.3757 13.8577 13.2091C14.2303 15.2226 15.3094 16.8009 17.1105 17.9514C17.3667 18.1137 17.39 18.1506 17.2658 18.1874C16.8 18.3423 15.5734 18.8586 15.1386 19.0799C12.7786 20.3189 10.993 22.1775 9.84399 24.5966C9.54898 25.2161 9.12976 26.5141 9.04436 27.0968C9.01331 27.2812 8.95897 27.4508 8.92791 27.4729C8.78817 27.554 7.5305 26.0052 6.85508 24.9284C5.80702 23.269 5.20924 21.6759 4.72791 19.2864C4.56488 18.5046 4.58817 15.348 4.7512 14.5293C5.33346 11.6825 6.22625 9.72801 7.89538 7.61868C10.0769 4.85295 13.3763 2.751 16.8466 1.9176C17.654 1.72584 18.671 1.53408 19.4085 1.44558C20.0373 1.37183 22.8865 1.4677 23.5619 1.57833ZM22.7002 6.93278C23.6706 7.22779 24.2994 7.59656 25.037 8.29721C25.9919 9.19699 26.4887 10.1041 26.7139 11.3506C26.8226 11.9258 26.7604 12.9879 26.5897 13.6074C26.0695 15.4512 24.315 17.0738 22.3431 17.5163C21.7065 17.6564 20.2935 17.6564 19.6569 17.5163C17.6773 17.0738 15.946 15.466 15.4026 13.5705C15.2085 12.892 15.2085 11.4981 15.4026 10.8122C16.0081 8.69547 17.7471 7.17616 20.0684 6.74102C20.8525 6.59352 21.8229 6.66727 22.7002 6.93278ZM23.0884 19.2052C24.4625 19.4707 26.054 20.1271 27.2418 20.9237C27.8861 21.3588 29.2913 22.6864 29.7183 23.269C30.2229 23.9623 30.7043 24.8252 31.0148 25.5922C31.3331 26.374 31.6747 27.8564 31.6669 28.4686V28.8742L31.1468 29.2577C28.1656 31.4408 24.641 32.5987 20.9767 32.5987C20.3479 32.5987 19.4706 32.5471 19.0203 32.4955C18.2285 32.3922 16.3264 32.0013 15.9693 31.8612C15.8762 31.8243 15.5113 31.6916 15.1542 31.5662C13.7179 31.0573 12.3283 30.3124 10.8843 29.2799L10.3176 28.8742L10.3564 28.2842C10.4728 26.5953 11.0784 25.0022 12.2196 23.3796C12.7397 22.6421 14.1682 21.3072 14.9911 20.7835C16.2255 19.9944 17.8558 19.3675 19.1368 19.1831C19.4784 19.1315 19.8122 19.0799 19.8743 19.0651C20.1693 18.9913 22.5294 19.102 23.0884 19.2052Z" fill="#374159"/>
</svg>
