<svg width="40" height="25" viewBox="0 0 40 25" fill="none" xmlns="http://www.w3.org/2000/svg">
<path d="M19.194 3.99463C18.0716 4.26273 17.2179 4.79222 16.4597 5.69705C16.0955 6.126 15.9462 6.38069 15.6835 6.98391C15.2597 7.94906 15.1343 8.6327 15.182 9.65147C15.2238 10.5563 15.3313 10.9987 15.7074 11.8432C15.9403 12.3659 16.1194 12.6542 16.4716 13.0831C16.7283 13.3914 17.0089 13.6863 17.0985 13.7332C17.182 13.7869 17.2537 13.8539 17.2537 13.8807C17.2537 13.9075 16.997 14.0818 16.6865 14.2761C15.5164 15.0067 14.5432 16.0925 13.9283 17.3592C13.4626 18.3177 13.0746 19.819 13.0746 20.6702V21.0523L13.7492 21.0322L14.4179 21.0121L14.4597 20.4759C14.6746 17.8619 16.3582 15.6769 18.7164 14.9799C18.9134 14.9196 19.385 14.8525 19.7612 14.8324C21.6716 14.7319 23.5104 15.7641 24.5791 17.5402C25.1104 18.4316 25.3671 19.1555 25.4925 20.0871C25.5283 20.3753 25.5701 20.7105 25.588 20.8244L25.6179 21.0456H26.2806H26.9432L26.9074 20.4558C26.7462 17.929 25.3671 15.5563 23.3134 14.2761C23.0029 14.0818 22.7462 13.9075 22.7462 13.8807C22.7462 13.8539 22.8238 13.7869 22.9134 13.7198C23.1582 13.5657 23.8388 12.7413 24.0716 12.319C24.3283 11.87 24.5612 11.2668 24.6925 10.7574C24.8358 10.1743 24.8656 8.92761 24.7582 8.3378C24.3522 6.19973 22.9074 4.54423 21.0268 4.06166C20.6388 3.96112 19.5104 3.92091 19.194 3.99463ZM20.597 5.50268C21.2059 5.60992 21.982 6.06568 22.4298 6.58177C23.1701 7.43297 23.4746 8.23726 23.4746 9.38338C23.4746 10.5362 23.1761 11.3338 22.4179 12.1783C21.7253 12.9424 20.9552 13.2909 19.9522 13.2842C18.0537 13.2775 16.5253 11.5416 16.5194 9.38338C16.5134 8.29088 16.8477 7.37935 17.5403 6.60858C18.3761 5.67694 19.4328 5.2882 20.597 5.50268Z" fill="black" fill-opacity="0.4"/>
</svg>
