<svg width="20" height="15" viewBox="0 0 20 15" fill="none" xmlns="http://www.w3.org/2000/svg">
<path d="M9.64362 4.45082C9.5709 4.51639 9.35999 4.89344 9.1709 5.29508L8.83635 6.02459L8.18181 6.12295C7.41817 6.2459 7.24362 6.33607 7.12726 6.64754C6.99635 6.98361 7.0909 7.19672 7.65817 7.84426L8.16726 8.43443L8.0509 9.22131C7.90544 10.2213 7.97817 10.4836 8.44362 10.6148C8.58908 10.6557 8.79999 10.5738 9.31635 10.2787L9.99999 9.89344L10.6691 10.2869C11.4036 10.7049 11.5782 10.7213 11.8618 10.3852C12.0218 10.1967 12.0218 9.87705 11.8618 8.81148L11.7964 8.40164L12.3345 7.78689C12.8073 7.2541 12.8727 7.14754 12.8727 6.87705C12.8727 6.42623 12.6473 6.2623 11.8545 6.13935C11.4909 6.08197 11.1709 6.0164 11.1345 5.9918C11.0982 5.96721 10.9527 5.66394 10.8 5.32787C10.6545 4.9918 10.4654 4.63115 10.3782 4.52459C10.2109 4.31967 9.84726 4.27869 9.64362 4.45082ZM10.4291 5.55738C10.6036 5.95082 10.7927 6.31967 10.8509 6.37705C10.9091 6.42623 11.1782 6.5082 11.4545 6.54918C12.4145 6.71312 12.4364 6.72131 12.4364 6.86885C12.4364 6.94262 12.2109 7.2623 11.9273 7.58197C11.6 7.95082 11.4182 8.22951 11.4036 8.36066C11.3964 8.47541 11.44 8.89344 11.4909 9.28689C11.5564 9.78689 11.5636 10.0328 11.5127 10.0902C11.4618 10.1475 11.2291 10.0574 10.7709 9.80328C10.4073 9.59836 10.0436 9.42623 9.96362 9.42623C9.88362 9.42623 9.53453 9.59836 9.19271 9.80328C8.66181 10.1311 8.55271 10.1721 8.47271 10.0738C8.39271 9.97541 8.39271 9.86066 8.47271 9.34426C8.65453 8.2459 8.65453 8.2459 8.03635 7.55738C7.73817 7.22131 7.4909 6.91803 7.4909 6.87705C7.4909 6.7623 7.75999 6.67213 8.25453 6.60656C9.07635 6.5 9.13453 6.45082 9.46181 5.71312C9.96362 4.59017 9.99999 4.59017 10.4291 5.55738Z" fill="black"/>
</svg>
