<svg width="40" height="37" viewBox="0 0 40 37" fill="none" xmlns="http://www.w3.org/2000/svg">
<path d="M10.8622 4.19332C5.93778 5.85421 1.88444 7.25199 1.83111 7.28488C1.79555 7.33421 2.70222 7.67954 3.85778 8.05777C5.01333 8.45243 6.52444 8.96221 7.2 9.20888L8.44444 9.63643L8.53333 11.8564C8.62222 14.0764 8.72889 14.4711 9.38667 14.8493C9.49333 14.9151 9.6 15.2604 9.6 15.5893C9.61778 16.7733 10.0978 18.7302 10.6489 19.7827C11.2711 20.9995 12.6933 22.5289 13.7956 23.1867L14.5422 23.6142L12.9956 24.3049C11.2 25.0942 9.40444 26.4098 8.26667 27.7582C6.80889 29.4684 5.58222 32.0502 5.26222 34.0564C5.15555 34.7307 5.19111 34.8787 5.6 35.3391C5.95555 35.7173 6.22222 35.8489 6.66667 35.8489C7.52 35.8489 7.98222 35.4213 8.28444 34.2867C9.40444 30.2413 13.0667 26.7387 17.2444 25.7355C18.5244 25.4231 21.0133 25.3902 22.2756 25.6533C25.2089 26.2618 28.0533 28.1035 29.9022 30.636C30.7022 31.7049 31.8222 34.04 31.8222 34.632C31.8222 35.1253 32.6578 35.8489 33.2444 35.8489C33.7956 35.8489 34.5956 35.3391 34.7556 34.8622C34.9156 34.3853 34.2044 31.8693 33.5111 30.488C32.0533 27.528 29.7778 25.4231 26.6489 24.1075L25.3867 23.5813L26.2933 23.0551C28.5689 21.6902 30.0978 19.0755 30.2933 16.2307C30.3644 15.2769 30.4533 15.0302 30.9156 14.5369L31.4667 13.9613V11.7907V9.61999L33.7422 8.86354L36 8.1071L36.0533 9.71865L36.1067 11.3467H36.6222H37.1556V9.52132V7.71243L37.7067 7.53154C37.9911 7.43288 38.2044 7.33421 38.1689 7.28488C38.0622 7.20265 20.0711 1.1511 19.9289 1.16754C19.8756 1.16754 15.7867 2.53243 10.8622 4.19332ZM25.1733 5.67332C27.8756 6.52843 30.1333 7.25199 30.1689 7.30132C30.2222 7.35065 21.2267 10.2613 20.3378 10.4587C19.9289 10.5573 9.47555 7.44932 9.65333 7.30132C9.83111 7.13688 19.4844 4.12754 19.8578 4.12754C20.0711 4.1111 22.4533 4.81821 25.1733 5.67332ZM15.9467 12.1689C18.08 12.8924 19.8933 13.4844 20 13.4844C20.1067 13.4844 21.92 12.8924 24.0533 12.1689C26.1867 11.4453 28.0533 10.8533 28.1956 10.8533C28.3911 10.8533 28.4444 11.0835 28.4444 11.8071C28.4444 12.6458 28.3733 12.8267 27.9644 13.1884C26.4356 14.5369 22.0444 15.6222 19.04 15.4084C16.3022 15.2111 12.7467 14.0271 11.9111 13.0404C11.4667 12.5142 11.3956 10.8533 11.8044 10.8533C11.9467 10.8533 13.8133 11.4453 15.9467 12.1689ZM14.4 17.1351C18.4889 18.4671 21.9733 18.4342 26.0978 17.0035L27.2533 16.5924L27.1289 17.2831C26.9511 18.3027 26.0267 19.7827 25.0311 20.6542C22.2044 23.088 17.7778 23.088 14.9333 20.6213C13.9733 19.7991 13.0489 18.2533 12.8533 17.2009C12.7467 16.6089 12.7822 16.5595 13.0844 16.6747C13.2622 16.7569 13.8667 16.9542 14.4 17.1351Z" fill="#374159"/>
</svg>
